<svg
    xmlns="http://www.w3.org/2000/svg"
    viewBox="0 0 1024 1024"
    id="vector">
    <path
        id="path"
        d="M 554.68 215.32 L 318.05 373.16 L 452.96 652.92 L 791.68 652.92 L 925.61 386.44 Z"
        fill="#e9f2fe"/>
    <path
        id="path_1"
        d="M 412.33 128 C 438.79 128 460.33 149.63 460.33 176.2 C 460.33 177.7 460.25 179.19 460.12 180.65 L 570.55 231.84 C 574.405 233.638 577.394 236.893 578.859 240.886 C 580.324 244.88 580.148 249.296 578.37 253.16 C 577.095 255.945 575.047 258.306 572.469 259.962 C 569.892 261.617 566.893 262.498 563.83 262.5 C 561.59 262.5 559.31 262.02 557.14 261.02 L 446.68 209.82 C 441.55 215.111 435.271 219.152 428.33 221.63 L 428.33 425.99 C 436.263 428.184 443.672 431.958 450.111 437.086 C 456.549 442.213 461.886 448.589 465.8 455.83 L 805.43 376.11 L 673.47 314.94 C 669.615 313.142 666.626 309.887 665.161 305.894 C 663.696 301.9 663.872 297.484 665.65 293.62 C 666.818 291.061 668.642 288.855 670.936 287.227 C 673.23 285.599 675.914 284.606 678.716 284.348 C 681.517 284.091 684.337 284.578 686.89 285.76 L 820.06 347.49 C 824.513 342.877 829.849 339.207 835.751 336.7 C 841.652 334.194 847.998 332.901 854.41 332.9 C 880.88 332.9 902.41 354.52 902.41 381.1 C 902.41 407.68 880.88 429.3 854.41 429.3 C 852.28 429.3 850.19 429.15 848.13 428.87 L 732.39 656.99 C 740.884 665.94 745.62 677.821 745.61 690.16 C 745.61 716.73 724.07 738.35 697.61 738.35 C 676.81 738.35 659.06 725 652.41 706.38 L 333.73 706.41 C 327.07 725.03 309.33 738.38 288.53 738.38 C 262.07 738.38 240.53 716.75 240.53 690.18 C 240.53 676.94 245.87 664.94 254.49 656.22 L 136.41 409.86 C 134.69 410.05 132.95 410.15 131.19 410.15 C 104.73 410.15 83.19 388.52 83.19 361.95 C 83.19 335.37 104.73 313.75 131.19 313.75 C 142.07 313.75 152.12 317.41 160.18 323.57 L 365.72 187.76 C 364.789 183.977 364.319 180.096 364.32 176.2 C 364.32 149.63 385.85 128 412.32 128 Z M 288.53 674.11 C 284.282 674.123 280.208 675.823 277.21 678.832 C 274.211 681.842 272.527 685.922 272.53 690.17 C 272.527 694.418 274.211 698.498 277.21 701.508 C 280.208 704.517 284.282 706.217 288.53 706.23 C 297.36 706.23 304.53 699.03 304.53 690.17 C 304.533 685.922 302.849 681.842 299.85 678.832 C 296.852 675.823 292.778 674.123 288.53 674.11 Z M 697.59 674.11 C 693.342 674.123 689.268 675.823 686.27 678.832 C 683.271 681.842 681.587 685.922 681.59 690.17 C 681.587 694.418 683.271 698.498 686.27 701.508 C 689.268 704.517 693.342 706.217 697.59 706.23 C 706.42 706.23 713.59 699.03 713.59 690.17 C 713.593 685.922 711.909 681.842 708.91 678.832 C 705.912 675.823 701.838 674.123 697.59 674.11 Z M 450.66 532.24 C 443.097 538.451 434.136 542.73 424.551 544.707 C 414.967 546.685 405.043 546.301 395.64 543.59 L 325.64 659.65 C 329.17 663.97 331.96 668.91 333.83 674.27 L 648.02 674.27 Z M 814 407.1 L 473.07 487.13 C 472.845 493.625 471.582 500.043 469.33 506.14 L 670.16 650.67 C 679.955 643.77 692.005 640.819 703.88 642.41 L 819.61 414.28 C 817.519 412.068 815.641 409.664 814 407.1 Z M 166.27 394.82 C 165.929 395.189 165.582 395.552 165.23 395.91 L 283.32 642.27 C 288.317 641.726 293.368 641.969 298.29 642.99 L 368.28 526.91 C 361.921 520.217 357.166 512.165 354.373 503.365 C 351.581 494.565 350.824 485.245 352.16 476.11 Z M 412.33 455.97 C 396.46 455.97 383.53 468.94 383.53 484.9 C 383.53 500.84 396.46 513.82 412.33 513.82 C 428.21 513.82 441.13 500.85 441.13 484.9 C 441.13 468.95 428.21 455.98 412.33 455.98 Z M 383.34 214.59 L 177.8 350.4 C 179.001 355.293 179.429 360.344 179.07 365.37 L 364.97 446.66 C 372.986 436.644 383.964 429.412 396.33 426 L 396.33 221.63 C 391.661 219.967 387.279 217.588 383.34 214.58 Z M 854.39 365.06 C 850.142 365.073 846.068 366.773 843.07 369.782 C 840.071 372.792 838.387 376.872 838.39 381.12 C 838.387 385.368 840.071 389.448 843.07 392.458 C 846.068 395.467 850.142 397.167 854.39 397.18 C 863.22 397.18 870.39 389.98 870.39 381.12 C 870.393 376.872 868.709 372.792 865.71 369.782 C 862.712 366.773 858.638 365.073 854.39 365.06 Z M 131.2 345.89 C 126.952 345.903 122.878 347.603 119.88 350.612 C 116.881 353.622 115.197 357.702 115.2 361.95 C 115.197 366.198 116.881 370.278 119.88 373.288 C 122.878 376.297 126.952 377.997 131.2 378.01 C 140.03 378.01 147.2 370.8 147.2 361.95 C 147.203 357.702 145.519 353.622 142.52 350.612 C 139.522 347.603 135.448 345.903 131.2 345.89 Z M 624.32 258.4 C 628.52 258.4 632.65 260.12 635.63 263.1 C 638.61 266.09 640.32 270.24 640.32 274.46 C 640.32 278.68 638.6 282.83 635.63 285.82 C 632.63 288.819 628.562 290.513 624.32 290.53 C 620.075 290.516 616.003 288.821 613 285.82 C 610.012 282.795 608.33 278.712 608.32 274.46 C 608.32 270.24 610.03 266.09 613 263.1 C 616.002 260.1 620.075 258.409 624.32 258.4 Z M 412.33 160.13 C 408.082 160.143 404.008 161.843 401.01 164.852 C 398.011 167.862 396.327 171.942 396.33 176.19 C 396.325 180.44 398.008 184.523 401.006 187.534 C 404.005 190.546 408.08 192.247 412.33 192.26 C 421.16 192.26 428.33 185.05 428.33 176.2 C 428.333 171.952 426.649 167.872 423.65 164.862 C 420.652 161.853 416.578 160.153 412.33 160.14 Z"
        fill="#2a83fc"/>
    <path
        id="path_2"
        d="M 871.05 480.15 C 871.838 477.451 873.323 475.006 875.356 473.064 C 877.389 471.121 879.898 469.748 882.63 469.084 C 885.363 468.42 888.222 468.487 890.92 469.28 C 894.996 470.498 898.427 473.284 900.454 477.024 C 902.482 480.764 902.944 485.16 901.74 489.24 L 818.19 773.9 L 886.4 773.9 C 895.24 773.9 902.4 781.09 902.4 789.96 C 902.4 848.43 855.03 896 796.8 896 L 188.8 896 C 130.57 896 83.2 848.44 83.2 789.96 C 83.2 781.09 90.37 773.9 99.2 773.9 L 167.4 773.9 L 83.86 489.43 C 82.656 485.35 83.118 480.954 85.146 477.214 C 87.173 473.474 90.604 470.688 94.68 469.47 C 97.378 468.676 100.238 468.607 102.971 469.27 C 105.704 469.934 108.214 471.307 110.247 473.251 C 112.279 475.194 113.764 477.64 114.55 480.34 L 200.77 773.89 L 419.2 773.89 C 428.03 773.89 435.2 781.08 435.2 789.95 C 435.2 798.83 428.03 806.01 419.2 806.01 L 188.85 806.01 L 188.79 806.02 L 116.95 806.02 C 124.27 839.07 153.71 863.86 188.8 863.86 L 796.8 863.86 C 831.88 863.86 861.32 839.07 868.65 806.02 L 564 806.02 C 555.16 806.02 548 798.83 548 789.96 C 548 781.08 555.16 773.89 564 773.89 L 784.83 773.89 Z M 491.2 773.89 C 495.4 773.89 499.53 775.61 502.51 778.59 C 505.49 781.58 507.2 785.73 507.2 789.95 C 507.2 794.17 505.48 798.32 502.51 801.31 C 499.51 804.309 495.442 806.003 491.2 806.02 C 486.955 806.006 482.883 804.311 479.88 801.31 C 476.892 798.285 475.21 794.202 475.2 789.95 C 475.2 785.73 476.91 781.58 479.88 778.59 C 482.885 775.593 486.956 773.903 491.2 773.89 Z"
        fill="#2bd2fc"/>
</svg>
