<svg
    xmlns="http://www.w3.org/2000/svg"
    viewBox="0 0 179 179"
    id="vector">
    <path
        id="path"
        d="M 149.1 110.43 L 113.16 85.05 C 110.63 69.33 107.19 53.74 105.28 45.48 C 102.59 33.88 99.74 22.91 97.24 14.59 C 93.07 0.65 91.82 0 89.8 0 C 87.79 0 86.35 0.7 82.14 14.59 C 79.66 22.78 76.81 33.76 74.12 45.49 C 70.86 59.71 68.22 73.25 66.37 85.1 L 30.49 110.43 C 28.93 111.53 27.8 113.72 27.8 115.63 L 27.8 137.78 C 27.8 140.11 29.49 141.86 31.72 141.86 C 32.06 141.86 32.41 141.82 32.76 141.73 L 62.8 134.36 L 62.8 140.73 C 62.56 140.94 62.34 141.17 62.15 141.41 L 50.39 157.3 C 49.67 158.28 49.3 159.74 49.48 160.95 L 51.78 176.47 C 52.04 178.25 53.6 179.59 55.4 179.59 L 62.85 179.59 C 64.54 179.59 66.12 178.35 66.51 176.71 L 68.75 167.58 L 68.94 167.58 L 71.18 176.81 C 71.57 178.44 73.08 179.58 74.84 179.58 L 82.84 179.58 C 84.53 179.58 86.11 178.34 86.5 176.7 L 88.74 167.57 L 88.93 167.57 L 91.17 176.8 C 91.56 178.43 93.07 179.57 94.83 179.57 L 103.83 179.57 C 105.52 179.57 107.1 178.33 107.49 176.69 L 109.73 167.56 L 109.92 167.56 L 112.16 176.79 C 112.55 178.42 114.06 179.56 115.82 179.56 L 123.27 179.56 C 125.07 179.56 126.63 178.22 126.89 176.44 L 129.19 160.92 C 129.37 159.72 129 158.26 128.28 157.28 L 116.52 141.39 C 116.31 141.11 116.06 140.85 115.77 140.62 L 115.77 134.09 L 146.81 141.7 C 147.16 141.79 147.51 141.83 147.85 141.83 C 150.08 141.83 151.77 140.08 151.77 137.75 L 151.77 115.6 C 151.8 113.71 150.66 111.53 149.1 110.43 Z M 90.06 89.48 C 87.95 89.48 80.55 77.37 80.55 62.43 C 80.55 47.49 87.36 35.38 90.06 35.38 C 92.42 35.38 99.57 47.49 99.57 62.43 C 99.57 77.37 91.99 89.48 90.06 89.48 Z"
        fill="#000000"/>
</svg>
