<svg
    xmlns="http://www.w3.org/2000/svg"
    viewBox="0 0 24 24"
    id="vector">
    <path
        id="path"
        d="M 4.993 11.016 C 4.44 11.016 3.993 10.568 3.993 10.016 C 3.993 9.658 4.18 9.345 4.462 9.168 L 7.15 6.48 C 7.54 6.09 8.174 6.09 8.564 6.48 C 8.954 6.871 8.954 7.504 8.564 7.895 L 7.443 9.016 L 14.993 9.016 C 15.545 9.016 15.993 9.463 15.993 10.016 C 15.993 10.568 15.545 11.016 14.993 11.016 L 5.042 11.016 C 5.033 11.016 5.024 11.016 5.015 11.016 L 4.993 11.016 Z"
        fill="#000000"/>
    <path
        id="path_1"
        d="M 19.008 12.984 C 19.56 12.984 20.008 13.432 20.008 13.984 C 20.008 14.341 19.82 14.655 19.538 14.832 L 16.851 17.52 C 16.46 17.91 15.827 17.91 15.436 17.52 C 15.046 17.129 15.046 16.496 15.436 16.105 L 16.558 14.984 L 9.008 14.984 C 8.455 14.984 8.008 14.536 8.008 13.984 C 8.008 13.432 8.455 12.984 9.008 12.984 L 18.958 12.984 C 18.967 12.984 18.976 12.984 18.985 12.984 L 19.008 12.984 Z"
        fill="#000000"/>
</svg>
