<svg
    xmlns="http://www.w3.org/2000/svg"
    viewBox="0 0 30 30"
    id="vector">
    <path
        id="path"
        d="M 15 0 C 12.879 0 10.843 0.843 9.343 2.343 C 7.843 3.843 7 5.879 7 8 C 7 10.121 7.843 12.157 9.343 13.657 C 10.843 15.157 12.879 16 15 16 C 17.121 16 19.157 15.157 20.657 13.657 C 22.157 12.157 23 10.121 23 8 C 23 5.879 22.157 3.843 20.657 2.343 C 19.157 0.843 17.121 0 15 0 Z M 15 2 C 16.591 2 18.118 2.633 19.243 3.757 C 20.367 4.882 21 6.409 21 8 C 21 9.591 20.367 11.118 19.243 12.243 C 18.118 13.367 16.591 14 15 14 C 13.409 14 11.882 13.367 10.757 12.243 C 9.633 11.118 9 9.591 9 8 C 9 6.409 9.633 4.882 10.757 3.757 C 11.882 2.633 13.409 2 15 2 Z"
        fill="#000000"
        fill-rule="evenodd"/>
    <path
        id="path_1"
        d="M 15 18.2 C 9.343 18.2 4.442 19.375 2 21.02 C 1.437 21.327 0.96 21.77 0.611 22.307 C 0.262 22.845 0.052 23.461 0 24.1 C 0.052 24.739 0.262 25.355 0.611 25.893 C 0.96 26.43 1.437 26.873 2 27.18 C 4.442 28.825 9.343 30 15 30 C 20.657 30 25.558 28.825 28 27.18 C 28.563 26.873 29.04 26.43 29.389 25.893 C 29.738 25.355 29.948 24.739 30 24.1 C 29.948 23.461 29.738 22.845 29.389 22.307 C 29.04 21.77 28.563 21.327 28 21.02 C 25.558 19.375 20.657 18.2 15 18.2 Z M 15 20.2 C 18.715 20.081 22.415 20.731 25.867 22.109 C 26.494 22.383 27.068 22.767 27.561 23.241 C 27.743 23.372 27.878 23.558 27.948 23.772 C 28.017 23.985 28.017 24.215 27.948 24.428 C 27.878 24.642 27.743 24.828 27.561 24.959 C 27.068 25.433 26.494 25.817 25.867 26.091 C 22.415 27.469 18.715 28.119 15 28 C 11.285 28.119 7.585 27.469 4.133 26.091 C 3.506 25.817 2.932 25.433 2.439 24.959 C 2.257 24.828 2.122 24.642 2.052 24.428 C 1.983 24.215 1.983 23.985 2.052 23.772 C 2.122 23.558 2.257 23.372 2.439 23.241 C 2.932 22.767 3.506 22.383 4.133 22.109 C 7.585 20.731 11.285 20.081 15 20.2 Z"
        fill="#000000"
        fill-rule="evenodd"/>
</svg>
