<svg
    xmlns="http://www.w3.org/2000/svg"
    viewBox="0 0 24 24"
    id="vector">
    <path
        id="path"
        d="M 2.864 4.413 C 3.053 3.019 4.245 2 5.639 2 L 18.361 2 C 19.755 2 20.947 3.019 21.137 4.413 C 21.394 6.313 21.782 9.407 21.911 11.707 C 22.039 13.972 22.003 17.034 21.962 18.942 C 21.931 20.372 20.826 21.537 19.401 21.645 C 17.462 21.793 14.325 22 12 22 C 9.675 22 6.538 21.793 4.599 21.645 C 3.174 21.537 2.069 20.372 2.038 18.942 C 1.997 17.034 1.961 13.972 2.089 11.707 C 2.218 9.407 2.606 6.313 2.864 4.413 Z M 5.639 3.538 C 5.003 3.538 4.472 4.001 4.388 4.62 C 4.13 6.519 3.75 9.56 3.625 11.794 C 3.501 13.993 3.535 17.001 3.576 18.909 C 3.59 19.546 4.08 20.063 4.716 20.111 C 6.653 20.259 9.739 20.462 12 20.462 C 14.261 20.462 17.347 20.259 19.284 20.111 C 19.92 20.063 20.41 19.546 20.424 18.909 C 20.465 17.001 20.499 13.993 20.375 11.794 C 20.25 9.56 19.87 6.519 19.612 4.62 C 19.528 4.001 18.997 3.538 18.361 3.538 L 5.639 3.538 Z"
        fill="#030d45"
        fill-rule="evenodd"/>
    <path
        id="path_1"
        d="M 7.897 6.103 C 8.322 6.103 8.667 6.447 8.667 6.872 C 8.667 8.713 10.159 10.205 12 10.205 C 13.841 10.205 15.333 8.713 15.333 6.872 C 15.333 6.447 15.678 6.103 16.103 6.103 C 16.527 6.103 16.872 6.447 16.872 6.872 C 16.872 9.562 14.691 11.744 12 11.744 C 9.309 11.744 7.128 9.562 7.128 6.872 C 7.128 6.447 7.473 6.103 7.897 6.103 Z"
        fill="#030d45"
        fill-rule="evenodd"/>
</svg>
