<svg
    xmlns="http://www.w3.org/2000/svg"
    viewBox="0 0 24 24"
    id="vector">
    <path
        id="path"
        d="M 6.5 3.588 C 5.767 3.588 4.736 3.763 4.052 3.899 C 3.973 3.915 3.915 3.973 3.899 4.052 C 3.763 4.736 3.588 5.767 3.588 6.5 C 3.588 7.233 3.763 8.264 3.899 8.948 C 3.915 9.027 3.973 9.085 4.052 9.101 C 4.736 9.237 5.767 9.412 6.5 9.412 C 7.233 9.412 8.264 9.237 8.948 9.101 C 9.027 9.085 9.085 9.027 9.101 8.948 C 9.237 8.264 9.412 7.233 9.412 6.5 C 9.412 5.767 9.237 4.736 9.101 4.052 C 9.085 3.973 9.027 3.915 8.948 3.899 C 8.264 3.763 7.233 3.588 6.5 3.588 Z M 3.741 2.342 C 4.427 2.205 5.595 2 6.5 2 C 7.405 2 8.573 2.205 9.259 2.342 C 9.967 2.483 10.517 3.033 10.658 3.741 C 10.795 4.427 11 5.595 11 6.5 C 11 7.405 10.795 8.573 10.658 9.259 C 10.517 9.967 9.967 10.517 9.259 10.658 C 8.573 10.795 7.405 11 6.5 11 C 5.595 11 4.427 10.795 3.741 10.658 C 3.033 10.517 2.483 9.967 2.342 9.259 C 2.205 8.573 2 7.405 2 6.5 C 2 5.595 2.205 4.427 2.342 3.741 C 2.483 3.033 3.033 2.483 3.741 2.342 Z"
        fill="#030d45"
        fill-rule="evenodd"/>
    <path
        id="path_1"
        d="M 6.5 14.588 C 5.767 14.588 4.736 14.763 4.052 14.899 C 3.973 14.915 3.915 14.973 3.899 15.052 C 3.763 15.736 3.588 16.767 3.588 17.5 C 3.588 18.233 3.763 19.264 3.899 19.948 C 3.915 20.027 3.973 20.085 4.052 20.101 C 4.736 20.237 5.767 20.412 6.5 20.412 C 7.233 20.412 8.264 20.237 8.948 20.101 C 9.027 20.085 9.085 20.027 9.101 19.948 C 9.237 19.264 9.412 18.233 9.412 17.5 C 9.412 16.767 9.237 15.736 9.101 15.052 C 9.085 14.973 9.027 14.915 8.948 14.899 C 8.264 14.763 7.233 14.588 6.5 14.588 Z M 3.741 13.342 C 4.427 13.205 5.595 13 6.5 13 C 7.405 13 8.573 13.205 9.259 13.342 C 9.967 13.483 10.517 14.033 10.658 14.741 C 10.795 15.427 11 16.595 11 17.5 C 11 18.405 10.795 19.573 10.658 20.259 C 10.517 20.967 9.967 21.517 9.259 21.658 C 8.573 21.795 7.405 22 6.5 22 C 5.595 22 4.427 21.795 3.741 21.658 C 3.033 21.517 2.483 20.967 2.342 20.259 C 2.205 19.573 2 18.405 2 17.5 C 2 16.595 2.205 15.427 2.342 14.741 C 2.483 14.033 3.033 13.483 3.741 13.342 Z"
        fill="#030d45"
        fill-rule="evenodd"/>
    <path
        id="path_2"
        d="M 17.5 3.588 C 16.767 3.588 15.736 3.763 15.052 3.899 C 14.973 3.915 14.915 3.973 14.899 4.052 C 14.763 4.736 14.588 5.767 14.588 6.5 C 14.588 7.233 14.763 8.264 14.899 8.948 C 14.915 9.027 14.973 9.085 15.052 9.101 C 15.736 9.237 16.767 9.412 17.5 9.412 C 18.233 9.412 19.264 9.237 19.948 9.101 C 20.027 9.085 20.085 9.027 20.101 8.948 C 20.237 8.264 20.412 7.233 20.412 6.5 C 20.412 5.767 20.237 4.736 20.101 4.052 C 20.085 3.973 20.027 3.915 19.948 3.899 C 19.264 3.763 18.233 3.588 17.5 3.588 Z M 14.741 2.342 C 15.427 2.205 16.595 2 17.5 2 C 18.405 2 19.573 2.205 20.259 2.342 C 20.967 2.483 21.517 3.033 21.658 3.741 C 21.795 4.427 22 5.595 22 6.5 C 22 7.405 21.795 8.573 21.658 9.259 C 21.517 9.967 20.967 10.517 20.259 10.658 C 19.573 10.795 18.405 11 17.5 11 C 16.595 11 15.427 10.795 14.741 10.658 C 14.033 10.517 13.483 9.967 13.342 9.259 C 13.205 8.573 13 7.405 13 6.5 C 13 5.595 13.205 4.427 13.342 3.741 C 13.483 3.033 14.033 2.483 14.741 2.342 Z"
        fill="#030d45"
        fill-rule="evenodd"/>
    <path
        id="path_3"
        d="M 17.5 14.588 C 16.767 14.588 15.736 14.763 15.052 14.899 C 14.973 14.915 14.915 14.973 14.899 15.052 C 14.763 15.736 14.588 16.767 14.588 17.5 C 14.588 18.233 14.763 19.264 14.899 19.948 C 14.915 20.027 14.973 20.085 15.052 20.101 C 15.736 20.237 16.767 20.412 17.5 20.412 C 18.233 20.412 19.264 20.237 19.948 20.101 C 20.027 20.085 20.085 20.027 20.101 19.948 C 20.237 19.264 20.412 18.233 20.412 17.5 C 20.412 16.767 20.237 15.736 20.101 15.052 C 20.085 14.973 20.027 14.915 19.948 14.899 C 19.264 14.763 18.233 14.588 17.5 14.588 Z M 14.741 13.342 C 15.427 13.205 16.595 13 17.5 13 C 18.405 13 19.573 13.205 20.259 13.342 C 20.967 13.483 21.517 14.033 21.658 14.741 C 21.795 15.427 22 16.595 22 17.5 C 22 18.405 21.795 19.573 21.658 20.259 C 21.517 20.967 20.967 21.517 20.259 21.658 C 19.573 21.795 18.405 22 17.5 22 C 16.595 22 15.427 21.795 14.741 21.658 C 14.033 21.517 13.483 20.967 13.342 20.259 C 13.205 19.573 13 18.405 13 17.5 C 13 16.595 13.205 15.427 13.342 14.741 C 13.483 14.033 14.033 13.483 14.741 13.342 Z"
        fill="#030d45"
        fill-rule="evenodd"/>
</svg>
